<?xml version="1.0"?>
<svg xmlns="http://www.w3.org/2000/svg" xmlns:xlink="http://www.w3.org/1999/xlink" version="1.1" id="Layer_1" x="0px" y="0px" viewBox="0 0 512 512" style="enable-background:new 0 0 512 512;" xml:space="preserve" width="512px" height="512px" class=""><g><g>
	<path d="M136,256c-19.556,0-36.24,12.539-42.437,30h84.873C172.24,268.539,155.556,256,136,256z" data-original="#000000" class="active-path" data-old_color="#000000" fill="#8D77EB"/>
	<path d="M136,166c-8.276,0-15,6.724-15,15s6.724,15,15,15s15-6.724,15-15S144.276,166,136,166z" data-original="#000000" class="active-path" data-old_color="#000000" fill="#8D77EB"/>
	<path d="M512,76H0v360h512V76z M241,136h90v30h-90V136z M241,226h150v30H241V226z M211,376H61v-30h150V376z M211,316H61v-15   c0-41.353,33.647-75,75-75c-24.814,0-45-20.186-45-45s20.186-45,45-45s45,20.186,45,45s-20.186,45-45,45c41.353,0,75,33.647,75,75   V316z M451,376H241v-30h210V376z M451,316H241v-30h210V316z M451,166h-90v-30h90V166z" data-original="#000000" class="active-path" data-old_color="#000000" fill="#8D77EB"/>
</g></g> </svg>
